<?xml version="1.0" encoding="UTF-8" standalone="no"?>
<!-- Created with Inkscape (http://www.inkscape.org/) -->

<svg
   xmlns:dc="http://purl.org/dc/elements/1.1/"
   xmlns:cc="http://creativecommons.org/ns#"
   xmlns:rdf="http://www.w3.org/1999/02/22-rdf-syntax-ns#"
   xmlns:svg="http://www.w3.org/2000/svg"
   xmlns="http://www.w3.org/2000/svg"
   version="1.1"
   width="256"
   height="256"
   viewBox="0 0 256 256"
   id="DESIGNS"
   xml:space="preserve"><title
     id="title3"
     property="dc:title">to send</title><desc
     id="desc5"
     property="dc:description">An icon for &quot;send&quot; from the Hatch series on to [icon]. Downloaded from http://www.toicon.com/icons/hatch_send by 212.123.218.126 on 2016-09-05. Licensed CC-BY, see http://toicon.com/license/ for details.</desc><defs
     id="defs29" /><g
     transform="matrix(1.9449478,0,0,1.9368469,-120.95331,-119.91638)"
     id="g3776"><rect
       width="129.62712"
       height="130.16949"
       rx="0"
       ry="8.5118246"
       x="63.18644"
       y="62.915253"
       id="rect3006"
       style="color:#000000;fill:#ffffff;fill-opacity:1;stroke:#295da6;stroke-width:2;stroke-miterlimit:4;stroke-opacity:1;stroke-dasharray:none;marker:none;visibility:visible;display:inline;overflow:visible;enable-background:accumulate" /><g
       transform="matrix(2.9152542,0,0,2.9286812,81.355933,79.67676)"
       id="g7"><path
         d="M 2.954,7.953 2.247,7.246 3.493,6 H 4.907 L 2.954,7.953 z M 8.907,6 H 7.493 L 4.247,9.246 4.954,9.953 8.907,6 z m 5.34,13.246 0.707,0.707 L 28.907,6 H 27.493 L 14.247,19.246 z M 24.907,6 H 23.493 L 12.247,17.246 12.954,17.953 24.907,6 z m -4,0 h -1.414 l -9.246,9.246 0.707,0.707 L 20.907,6 z m -8,0 H 11.493 L 6.247,11.246 6.954,11.953 12.907,6 z m 4,0 H 15.493 L 8.247,13.246 8.954,13.953 16.907,6 z"
         id="path9"
         style="fill:#ffc5bb" /><path
         d="M 31.992,5.969 C 31.988,5.85 31.971,5.731 31.924,5.617 31.769,5.244 31.404,5 31,5 H 1 C 0.596,5 0.231,5.244 0.076,5.617 0.029,5.732 0.011,5.852 0.008,5.972 0.007,5.983 0,27 0,27 c 0,0.552 0.448,1 1,1 h 30 c 0.552,0 1,-0.448 1,-1 C 32,27 31.993,5.981 31.992,5.969 z M 21.563,16.852 31,7.414 V 26.29 L 21.563,16.852 z M 30.296,27 H 1.707 l 9.439,-9.439 4.146,4.146 C 15.488,21.902 15.744,22 16,22 c 0.256,0 0.512,-0.098 0.707,-0.293 L 20.855,17.559 30.296,27 z M 16,21 1,6 H 31 L 16,21 z M 10.439,16.854 1,26.293 V 7.414 l 9.439,9.44 z"
         id="path11"
         style="fill:#265aa5" /></g></g><metadata
     id="metadata13"><work
       id="work15"
       rdf:about=""><format
         id="format17">image/svg+xml</format><type
         id="type19"
         rdf:resource="http://purl.org/dc/dcmitype/StillImage" /><license
         id="license21"
         rdf:resource="http://creativecommons.org/licenses/by/4.0/" /><attributionname
         id="attributionname23">Carol Liao</attributionname><attributionurl
         id="attributionurl25">http://www.toicon.com/icons/hatch_send</attributionurl></work><rdf:RDF><cc:Work
         rdf:about=""><dc:format>image/svg+xml</dc:format><dc:type
           rdf:resource="http://purl.org/dc/dcmitype/StillImage" /><dc:title>to send</dc:title></cc:Work></rdf:RDF></metadata></svg>